<svg id="图层_1" data-name="图层 1" xmlns="http://www.w3.org/2000/svg" viewBox="0 0 52.99 25.51"><defs><style>.cls-1{fill:red;}.cls-2{fill:#ff0;}.cls-2,.cls-3{fill-rule:evenodd;}.cls-3{fill:blue;}.cls-4{fill:lime;}</style></defs><title>logo</title><path class="cls-1" d="M74.86,57a13.18,13.18,0,0,1-11.11,6,12.76,12.76,0,1,1,0-25.51A13.19,13.19,0,0,1,74.5,42.95a5.09,5.09,0,0,0-2.58,1.35,10.29,10.29,0,0,0-8.17-4,9.92,9.92,0,1,0,0,19.84,10.28,10.28,0,0,0,8.42-4.32A4.89,4.89,0,0,0,74.86,57Z" transform="translate(-50.64 -37.49)"/><path class="cls-2" d="M71.91,44.3a5.09,5.09,0,0,1,2.58-1.35,4.47,4.47,0,0,1,.82-.07C78.45,42.87,81,46,81,50S78.45,57,75.32,57a3.57,3.57,0,0,1-.46,0,4.89,4.89,0,0,1-2.69-1.17A7.67,7.67,0,0,1,69.65,50,7.78,7.78,0,0,1,71.91,44.3Zm1.52,2.82a4.51,4.51,0,0,0,0,6.21,2.72,2.72,0,0,0,1.87.78,2.57,2.57,0,0,0,1-.2,4.27,4.27,0,0,0,0-7.41,2.55,2.55,0,0,0-1-.19A2.72,2.72,0,0,0,73.43,47.11Z" transform="translate(-50.64 -37.49)"/><g id="_编组_" data-name="&lt;编组&gt;"><path class="cls-3" d="M95.08,48.46a11.51,11.51,0,0,0,5.83,0,2.95,2.95,0,0,0-5.83,0Zm-2.7.38a8.86,8.86,0,0,0-.06,1q0,.36,0,.72c.29,3.58,2.7,6.37,5.64,6.37s5.35-2.79,5.64-6.36a12.23,12.23,0,0,1-2.89,1.12,2.86,2.86,0,0,1-5.49,0,4.64,4.64,0,0,1-.37-1.83,11.52,11.52,0,0,0,6.24,0,12.15,12.15,0,0,0,2.49-1,8.3,8.3,0,0,0-.25-1.32c-.77-2.77-2.87-4.77-5.35-4.77s-4.59,2-5.36,4.77A8.21,8.21,0,0,0,92.38,48.84Z" transform="translate(-50.64 -37.49)"/><path class="cls-4" d="M89.47,54.24l0-.06A3.13,3.13,0,0,0,86.66,52c-1.72,0-3.12,1.74-3.12,3.9s1.39,3.9,3.12,3.9,3.12-1.74,3.12-3.9A4.67,4.67,0,0,0,89.47,54.24Zm.93-3.65A10.83,10.83,0,0,0,92.33,56a12.4,12.4,0,0,0,1.18,1.47,18.92,18.92,0,0,0,1.74,3.47A16.22,16.22,0,0,1,92,58.21C91.26,61,89.15,63,86.66,63,83.53,63,81,59.83,81,55.92s2.54-7.09,5.67-7.09a4.63,4.63,0,0,1,2,.43,11,11,0,0,1,.17-1.49,10.87,10.87,0,0,1,.34-1.38c.11-.36.24-.72.39-1.07a14.67,14.67,0,0,1,5.73-6.54,18.92,18.92,0,0,0-1.74,3.47,11.82,11.82,0,0,0-2.57,4.23,9.51,9.51,0,0,0-.33,1.2,10,10,0,0,0-.21,1.57c0,.19,0,.39,0,.58S90.38,50.35,90.4,50.6Z" transform="translate(-50.64 -37.49)"/></g></svg>